<?xml version="1.0" standalone="no"?>
<!DOCTYPE svg PUBLIC "-//W3C//DTD SVG 20010904//EN"
 "http://www.w3.org/TR/2001/REC-SVG-20010904/DTD/svg10.dtd">
<svg version="1.0" xmlns="http://www.w3.org/2000/svg"
 width="513.000000pt" height="513.000000pt" viewBox="0 0 513.000000 513.000000"
 preserveAspectRatio="xMidYMid meet">
<metadata>
Created by potrace 1.14, written by Peter Selinger 2001-2017
</metadata>
<g transform="translate(0.000000,513.000000) scale(0.100000,-0.100000)"
fill="#000000" stroke="none">
<path d="M3540 4231 c0 -5 -9 -7 -20 -4 -11 3 -20 0 -20 -6 0 -6 -5 -11 -11
-11 -5 0 -7 6 -3 13 5 8 2 8 -9 -2 -11 -9 -17 -10 -17 -2 0 6 -11 11 -25 11
-14 0 -25 -4 -25 -9 0 -5 -18 -12 -40 -16 -22 -4 -43 -11 -46 -16 -3 -5 -21
-8 -40 -7 -24 1 -40 -4 -54 -20 -12 -12 -30 -22 -41 -22 -11 0 -22 -7 -25 -15
-4 -8 -15 -15 -27 -15 -11 0 -18 -3 -14 -6 3 -3 -5 -16 -18 -29 -14 -12 -22
-24 -19 -27 3 -3 -7 -9 -21 -12 -14 -4 -23 -10 -21 -15 3 -5 -1 -14 -9 -21 -8
-7 -15 -18 -15 -24 0 -6 5 -4 10 4 5 8 10 10 10 4 0 -30 -73 -46 -105 -23 -13
9 -130 22 -178 20 -21 -1 -36 2 -33 7 3 5 -1 9 -9 9 -8 0 -12 -4 -9 -9 8 -13
-10 -10 -25 5 -11 10 -13 10 -7 0 9 -16 -27 -17 -56 -2 -16 9 -19 8 -13 -3 6
-10 5 -11 -6 0 -15 14 -33 17 -25 4 3 -5 -1 -9 -9 -9 -8 0 -12 4 -9 9 3 4 0 8
-5 8 -6 0 -11 -6 -11 -12 0 -9 -4 -8 -11 2 -8 11 -12 12 -16 3 -2 -7 -9 -13
-14 -13 -6 0 -7 6 -3 13 5 9 4 9 -6 0 -9 -8 -17 -9 -30 -1 -10 7 -25 8 -36 3
-27 -11 -64 -14 -58 -3 3 4 0 8 -5 8 -6 0 -11 -4 -11 -10 0 -5 -14 -10 -31
-10 -16 0 -28 4 -25 8 5 9 -19 8 -44 -1 -12 -4 -125 -15 -183 -17 -5 0 -5 -4
-2 -10 3 -5 -1 -10 -10 -10 -10 0 -13 5 -9 13 6 9 5 9 -7 0 -8 -6 -29 -11 -46
-11 -27 1 -33 6 -38 30 -4 15 -11 28 -16 28 -5 0 -9 7 -9 15 0 8 -7 15 -16 15
-8 0 -12 5 -9 10 3 6 1 10 -4 10 -6 0 -23 14 -38 30 -14 17 -33 30 -40 30 -8
0 -11 5 -8 10 3 6 -1 10 -10 10 -9 0 -25 9 -37 20 -20 18 -52 25 -103 21 -15
-2 -17 0 -6 7 9 7 -1 11 -33 16 -26 4 -44 11 -42 15 3 4 -14 8 -37 9 -31 2
-38 0 -27 -8 12 -8 11 -9 -7 -7 -12 2 -26 6 -29 10 -12 11 -96 8 -89 -3 4 -6
-5 -10 -20 -10 -14 0 -24 4 -21 9 11 17 -124 -15 -136 -33 -5 -7 -8 -6 -8 4 0
11 -3 11 -12 2 -7 -7 -20 -12 -29 -12 -9 0 -22 -7 -30 -16 -7 -8 -21 -13 -31
-11 -10 3 -21 1 -24 -4 -3 -5 -9 -7 -13 -5 -4 3 -17 -4 -29 -14 -12 -11 -26
-20 -32 -20 -5 0 -10 -6 -10 -12 0 -9 -4 -8 -10 2 -8 13 -11 11 -16 -7 -3 -12
-15 -25 -26 -29 -27 -8 -58 -36 -52 -46 3 -4 0 -8 -7 -8 -6 0 -18 -8 -26 -17
-10 -12 -12 -13 -8 -3 4 10 2 9 -8 -2 -8 -10 -19 -18 -26 -18 -6 0 -11 -7 -11
-16 0 -8 -4 -13 -9 -10 -5 3 -12 -6 -16 -21 -4 -19 -9 -23 -15 -14 -6 10 -10
8 -15 -10 -5 -13 -14 -28 -21 -34 -8 -5 -15 -22 -16 -37 -1 -15 -5 -25 -9 -22
-4 2 -10 -7 -13 -21 -4 -14 -11 -25 -16 -25 -6 0 -10 -7 -10 -15 0 -8 -4 -15
-10 -15 -5 0 -10 -9 -10 -20 0 -12 -7 -35 -16 -52 -9 -16 -12 -28 -6 -25 5 4
9 0 9 -8 0 -8 -5 -11 -10 -8 -6 4 -8 -5 -5 -21 3 -14 2 -29 -2 -31 -10 -6 -1
-126 10 -140 4 -5 10 -34 12 -64 3 -29 9 -56 14 -60 15 -10 36 -52 30 -59 -3
-3 -6 1 -6 8 0 7 -3 10 -7 6 -4 -3 8 -20 25 -36 34 -31 42 -69 19 -92 -7 -7
-16 -21 -20 -31 -4 -10 -11 -15 -17 -12 -5 3 -10 -1 -10 -9 0 -9 -5 -16 -10
-16 -6 0 -9 -3 -8 -7 1 -5 -2 -23 -6 -42 -5 -22 -11 -29 -16 -21 -5 8 -10 2
-15 -19 -3 -17 -10 -31 -15 -31 -5 0 -12 -10 -16 -22 -4 -13 -10 -25 -14 -28
-5 -3 -10 -14 -12 -25 -1 -11 -13 -29 -26 -41 -12 -12 -22 -29 -22 -38 0 -9
-4 -16 -10 -16 -5 0 -7 -7 -4 -15 3 -8 -1 -24 -10 -37 -9 -12 -16 -32 -16 -43
0 -12 -4 -25 -10 -31 -9 -9 -17 -40 -20 -79 l-1 -20 -9 20 c-6 14 -9 6 -8 -32
1 -34 -5 -61 -17 -79 -12 -19 -14 -29 -7 -32 7 -2 12 -8 12 -13 0 -6 -5 -7
-10 -4 -6 4 -10 -6 -10 -24 0 -16 -4 -33 -10 -36 -5 -3 -10 -12 -10 -18 0 -7
4 -6 10 3 5 8 10 10 10 5 0 -6 -5 -16 -10 -21 -6 -6 -13 -39 -16 -75 -3 -35
-7 -70 -9 -76 -3 -7 0 -13 4 -13 5 0 7 -15 4 -32 -7 -37 -7 -46 0 -136 3 -34
10 -69 16 -76 8 -10 9 -16 1 -21 -5 -3 -10 -16 -9 -28 0 -21 1 -21 9 -2 6 15
9 6 9 -33 1 -29 5 -51 10 -48 5 3 12 -25 16 -62 4 -37 12 -70 18 -74 6 -3 12
-17 14 -29 2 -13 10 -27 18 -32 8 -4 12 -14 9 -21 -3 -7 2 -20 10 -29 8 -8 18
-26 22 -41 3 -14 13 -26 21 -26 8 0 12 -4 9 -9 -4 -5 -1 -11 6 -13 6 -2 12
-11 14 -20 3 -24 35 -68 45 -62 5 3 9 -1 9 -8 0 -15 35 -48 51 -48 5 0 7 -4 4
-10 -3 -5 -1 -10 6 -10 6 0 22 -11 35 -25 13 -14 20 -25 17 -25 -4 0 3 -9 15
-20 12 -11 25 -20 30 -20 5 0 18 -11 28 -25 10 -14 25 -25 33 -25 7 0 22 -9
32 -21 10 -11 22 -18 28 -15 5 3 15 1 23 -6 7 -7 36 -24 63 -38 28 -14 52 -28
53 -32 2 -5 13 -8 23 -8 14 0 18 -4 13 -12 -5 -8 0 -7 11 2 11 9 16 10 11 3
-4 -7 -3 -13 2 -13 5 0 19 -9 32 -20 23 -20 38 -24 74 -20 10 1 16 -3 12 -8
-3 -5 13 -12 36 -15 22 -3 44 -10 47 -15 3 -5 31 -12 61 -14 30 -3 56 -11 58
-17 2 -6 14 -11 26 -11 12 0 26 -4 32 -10 5 -5 31 -10 58 -11 26 -1 54 -8 61
-15 9 -10 15 -10 25 -1 10 9 11 9 6 0 -4 -8 -2 -13 6 -14 7 -1 20 -2 28 -3 8
-2 25 -3 38 -4 13 -1 20 -7 17 -12 -4 -6 8 -10 30 -10 20 0 34 4 31 8 -3 5 1
9 9 9 8 0 12 -4 9 -9 -3 -4 5 -9 18 -9 13 -1 34 -3 48 -5 14 -2 37 -4 53 -5
15 0 27 -4 27 -8 0 -4 16 -8 36 -9 27 -2 34 0 28 10 -6 10 -5 10 7 2 8 -7 55
-15 104 -18 114 -8 720 -8 760 0 17 3 65 6 108 7 42 1 77 4 77 7 0 3 17 7 38
8 20 2 46 5 57 7 11 2 33 4 48 4 20 1 26 5 21 14 -6 9 -4 9 7 -1 16 -14 73
-17 64 -2 -6 10 -4 11 54 16 19 1 37 7 41 13 3 6 33 14 66 17 32 2 61 9 62 14
2 6 15 10 28 10 14 0 35 6 47 13 12 8 40 15 62 16 21 1 44 6 50 11 6 5 30 12
53 16 23 4 42 10 42 15 0 5 14 9 30 9 17 0 30 5 30 11 0 5 14 15 30 20 17 6
30 15 30 20 0 5 11 9 25 9 14 0 25 4 25 9 0 5 14 13 31 16 20 5 27 10 19 15
-7 5 1 10 23 14 19 4 38 13 41 21 3 9 9 15 13 14 23 -4 43 2 41 13 -3 12 3 14
39 17 9 0 13 4 10 7 -8 9 32 44 49 44 8 0 17 12 20 26 5 19 9 22 15 12 6 -9 9
-10 9 -1 0 18 32 53 48 53 7 0 10 5 7 10 -3 6 1 10 9 10 8 0 18 9 21 20 4 11
11 18 16 15 5 -4 9 1 9 9 0 9 8 16 17 16 9 0 14 3 11 6 -4 3 2 14 13 25 11 11
17 24 14 29 -4 6 1 13 9 16 9 3 13 10 10 15 -3 5 5 13 18 18 13 6 16 10 8 11
-10 0 -11 3 -4 8 12 8 28 43 26 55 -1 4 3 7 9 7 5 0 8 4 4 9 -3 5 -1 12 5 16
5 3 10 15 10 25 0 10 8 25 19 32 13 9 21 32 26 76 4 34 10 62 14 62 4 0 8 6 8
13 2 60 15 153 24 163 13 16 10 185 -5 203 -8 11 -8 13 2 7 9 -5 12 6 12 46 0
30 -4 58 -10 64 -5 5 -12 41 -15 79 -4 39 -11 74 -16 79 -5 6 -9 17 -9 25 0 9
-7 29 -15 44 -8 15 -10 25 -5 22 6 -4 10 6 10 20 0 18 -4 24 -12 19 -8 -5 -7
0 2 11 9 11 10 16 3 11 -8 -4 -13 -1 -13 9 0 9 -4 14 -8 11 -5 -3 -9 0 -10 7
-1 7 -3 24 -5 38 -1 15 -8 34 -15 42 -7 8 -16 31 -19 51 -3 20 -10 36 -14 36
-5 0 -9 9 -9 20 0 11 -9 29 -20 40 -11 11 -20 29 -20 40 0 11 -6 20 -12 20 -9
0 -8 4 2 10 12 8 11 10 -7 10 -16 0 -23 8 -28 31 -5 22 -10 28 -15 19 -6 -9
-9 -4 -12 16 -2 17 -8 28 -15 27 -9 -2 -13 9 -13 32 0 24 -6 37 -20 45 -11 6
-20 17 -20 25 0 8 -4 15 -10 15 -5 0 -10 7 -10 15 0 8 -4 15 -10 15 -19 0 -10
39 11 45 11 4 18 9 15 12 -3 3 5 14 18 24 16 12 22 26 19 38 -3 11 2 34 11 53
14 30 27 106 27 153 0 10 5 26 12 34 10 12 9 13 -2 6 -11 -6 -12 -5 -5 6 12
19 14 40 4 34 -5 -3 -9 3 -9 12 1 51 -15 133 -22 121 -6 -9 -9 -3 -10 17 -1
17 -1 33 0 38 0 4 -3 7 -8 7 -11 0 -49 62 -53 87 -2 10 -15 30 -30 44 -15 15
-24 30 -21 33 4 3 -1 6 -10 6 -10 0 -17 7 -17 15 0 18 -40 56 -52 49 -4 -3 -8
0 -8 5 0 6 -7 11 -15 11 -8 0 -15 9 -15 21 0 11 -5 17 -10 14 -6 -3 -13 1 -16
9 -3 9 -12 16 -19 16 -6 0 -20 9 -30 20 -9 10 -33 24 -51 30 -19 7 -34 16 -34
21 0 5 -7 9 -15 9 -8 0 -15 4 -15 9 0 4 -11 6 -25 3 -15 -2 -25 0 -25 7 0 6
-5 11 -12 11 -6 0 -20 8 -31 18 -11 9 -17 11 -13 5 4 -7 2 -13 -3 -13 -6 0
-11 4 -11 9 0 5 -22 11 -48 15 -27 3 -52 9 -56 13 -10 10 -56 11 -50 1 3 -4
-7 -8 -21 -8 -18 0 -24 4 -19 13 4 6 4 9 0 5 -5 -4 -19 -3 -32 2 -14 6 -24 6
-24 1z m-1973 -17 c-3 -3 -12 -4 -19 -1 -8 3 -5 6 6 6 11 1 17 -2 13 -5z
m2753 -958 c0 -3 -4 -8 -10 -11 -5 -3 -10 -1 -10 4 0 6 5 11 10 11 6 0 10 -2
10 -4z"/>
</g>
</svg>
